<svg width="40" height="40" viewBox="0 0 40 40" fill="none" xmlns="http://www.w3.org/2000/svg">
<path d="M18.8497 2.72488L18.8499 2.7248C19.5822 2.39902 20.4178 2.39902 21.1501 2.7248L21.1503 2.72488L32.8169 7.90988L32.8171 7.90995C33.8411 8.3646 34.5 9.38028 34.5 10.4996V18.333C34.5 24.707 31.8835 29.3714 28.7446 32.5544C25.6419 35.7007 22.0458 37.3817 20 37.8223C17.9541 37.3817 14.3581 35.7007 11.2554 32.5544C8.11649 29.3714 5.5 24.707 5.5 18.333V10.4996C5.5 9.37875 6.15875 8.36466 7.18289 7.90995L7.18306 7.90988L18.8497 2.72488ZM12.1848 21.9149L16.8014 26.5315C17.6467 27.3768 19.02 27.3768 19.8652 26.5315L29.5186 16.8782C30.3638 16.0329 30.3638 14.6597 29.5186 13.8144C28.6733 12.9692 27.3 12.9692 26.4548 13.8144L18.3333 21.9359L15.2486 18.8511C14.4033 18.0058 13.03 18.0058 12.1848 18.8511C11.3395 19.6963 11.3395 21.0696 12.1848 21.9149Z" fill="#DCDCDC" stroke="#B6B6B6"/>
</svg>
