<?xml version="1.0" encoding="UTF-8"?>
<svg width="29px" height="31px" viewBox="0 0 29 31" version="1.1" xmlns="http://www.w3.org/2000/svg" xmlns:xlink="http://www.w3.org/1999/xlink">
    <!-- Generator: Sketch 64 (93537) - https://sketch.com -->
    <title>Group 5</title>
    <desc>Created with Sketch.</desc>
    <g id="Page-1" stroke="none" stroke-width="1" fill="none" fill-rule="evenodd" opacity="0.4">
        <g id="currency_rates" transform="translate(-706.000000, -445.000000)" fill="#000000">
            <g id="Group-5" transform="translate(706.000000, 445.000000)">
                <g id="Group-2">
                    <rect id="Rectangle" transform="translate(13.287879, 6.560439) scale(-1, 1) translate(-13.287879, -6.560439) " x="-6.17639273e-12" y="5.67407585" width="26.5757576" height="1.77272727"></rect>
                    <polygon id="Rectangle" transform="translate(24.749540, 3.908465) scale(-1, 1) rotate(-45.000000) translate(-24.749540, -3.908465) " points="20.1933484 3.10273131 29.2830052 3 29.3057325 4.79545455 21.9075467 4.81692957"></polygon>
                    <polygon id="Rectangle" transform="translate(24.749540, 9.212414) scale(-1, -1) rotate(-45.000000) translate(-24.749540, -9.212414) " points="20.1933484 8.40668071 29.2830052 8.3039494 29.3057325 10.0994039 21.9075467 10.120879"></polygon>
                </g>
                <g id="Group-2-Copy" transform="translate(14.500000, 25.000000) scale(-1, 1) translate(-14.500000, -25.000000) translate(0.000000, 18.000000)">
                    <rect id="Rectangle" transform="translate(13.287879, 6.560439) scale(-1, 1) translate(-13.287879, -6.560439) " x="-6.17639273e-12" y="5.67407585" width="26.5757576" height="1.77272727"></rect>
                    <polygon id="Rectangle" transform="translate(24.749540, 3.908465) scale(-1, 1) rotate(-45.000000) translate(-24.749540, -3.908465) " points="20.1933484 3.10273131 29.2830052 3 29.3057325 4.79545455 21.9075467 4.81692957"></polygon>
                    <polygon id="Rectangle" transform="translate(24.749540, 9.212414) scale(-1, -1) rotate(-45.000000) translate(-24.749540, -9.212414) " points="20.1933484 8.40668071 29.2830052 8.3039494 29.3057325 10.0994039 21.9075467 10.120879"></polygon>
                </g>
            </g>
        </g>
    </g>
</svg>