<svg width="18" height="18" viewBox="0 0 18 18" fill="none" xmlns="http://www.w3.org/2000/svg">
<path d="M1.99032 0.990242C1.79139 0.990294 1.59699 1.04967 1.43198 1.16079C1.26697 1.2719 1.13884 1.4297 1.06399 1.61401C0.98913 1.79832 0.970941 2.00077 1.01175 2.19548C1.05255 2.39018 1.15049 2.56829 1.29305 2.70704L7.58602 9.00001L1.29305 15.293C1.19708 15.3851 1.12046 15.4955 1.06767 15.6176C1.01489 15.7397 0.987001 15.8712 0.985647 16.0042C0.984294 16.1373 1.0095 16.2692 1.05979 16.3924C1.11008 16.5156 1.18444 16.6275 1.27852 16.7216C1.3726 16.8157 1.4845 16.89 1.60768 16.9403C1.73086 16.9906 1.86283 17.0158 1.99587 17.0144C2.12891 17.0131 2.26034 16.9852 2.38247 16.9324C2.5046 16.8796 2.61497 16.803 2.70712 16.707L9.00008 10.4141L15.2931 16.707C15.3852 16.803 15.4956 16.8796 15.6177 16.9324C15.7398 16.9852 15.8713 17.0131 16.0043 17.0145C16.1373 17.0158 16.2693 16.9906 16.3925 16.9403C16.5157 16.89 16.6276 16.8157 16.7217 16.7216C16.8157 16.6275 16.8901 16.5156 16.9404 16.3924C16.9907 16.2692 17.0159 16.1373 17.0145 16.0042C17.0132 15.8712 16.9853 15.7397 16.9325 15.6176C16.8797 15.4955 16.8031 15.3851 16.7071 15.293L10.4141 9.00001L16.7071 2.70704C16.8516 2.56658 16.9503 2.38574 16.9903 2.18822C17.0302 1.9907 17.0096 1.78571 16.931 1.60013C16.8525 1.41454 16.7197 1.25701 16.5501 1.14818C16.3805 1.03935 16.182 0.984302 15.9806 0.990242C15.7208 0.997983 15.4742 1.10656 15.2931 1.29298L9.00008 7.58595L2.70712 1.29298C2.61393 1.19718 2.50248 1.12104 2.37937 1.06904C2.25625 1.01704 2.12396 0.99025 1.99032 0.990242Z" fill="black"/>
</svg>
