<?xml version="1.0" encoding="UTF-8"?>
<svg width="26px" height="20px" viewBox="0 0 26 20" version="1.1" xmlns="http://www.w3.org/2000/svg" xmlns:xlink="http://www.w3.org/1999/xlink">
    <!-- Generator: Sketch 64 (93537) - https://sketch.com -->
    <title>Shape</title>
    <desc>Created with Sketch.</desc>
    <g id="Page-1" stroke="none" stroke-width="1" fill="none" fill-rule="evenodd">
        <path d="M25.9924167,1.05944444 C25.9897083,1.00444444 25.9794167,0.951666667 25.9685833,0.897222222 C25.95775,0.842222222 25.948,0.788333333 25.9295833,0.736111111 C25.923625,0.719444444 25.9241667,0.702222222 25.9176667,0.686111111 C25.904125,0.653333333 25.881375,0.627222222 25.865125,0.596111111 C25.839125,0.545555556 25.813125,0.496666667 25.7800833,0.451111111 C25.7486667,0.407777778 25.7129167,0.370555556 25.6755417,0.332777778 C25.6387083,0.295 25.6024167,0.258333333 25.5601667,0.225555556 C25.51575,0.191666667 25.4680833,0.165 25.4187917,0.138333333 C25.3884583,0.121666667 25.3635417,0.0977777778 25.3310417,0.0844444444 C25.3153333,0.0777777778 25.298,0.0777777778 25.2822917,0.0716666667 C25.2319167,0.0527777778 25.1804583,0.0427777778 25.127375,0.0316666667 C25.0732083,0.0205555556 25.0206667,0.00944444444 24.9659583,0.00666666667 C24.9491667,0.00666666667 24.9334583,0 24.9166667,0 L1.08333333,0 C1.066,0 1.04975,0.00722222222 1.03241667,0.00777777778 C0.978791667,0.0105555556 0.927333333,0.0211111111 0.87425,0.0322222222 C0.820625,0.0433333333 0.768083333,0.0533333333 0.717166667,0.0722222222 C0.700916667,0.0783333333 0.684125,0.0777777778 0.668416667,0.0844444444 C0.636458333,0.0983333333 0.611,0.121666667 0.580666667,0.138333333 C0.531375,0.165 0.483708333,0.191666667 0.439291667,0.225555556 C0.397041667,0.257777778 0.36075,0.294444444 0.323916667,0.332777778 C0.287083333,0.370555556 0.251333333,0.407777778 0.219375,0.451111111 C0.186333333,0.496666667 0.160333333,0.545555556 0.134333333,0.596111111 C0.118083333,0.627222222 0.0947916667,0.652777778 0.0817916667,0.686111111 C0.0752916667,0.702222222 0.0752916667,0.719444444 0.069875,0.736111111 C0.0514583333,0.788333333 0.0417083333,0.842222222 0.030875,0.897222222 C0.0205833333,0.951666667 0.00975,1.00444444 0.00704166667,1.05944444 C0.0065,1.07722222 0,1.09333333 0,1.11111111 L0,18.8888889 C0,18.9616667 0.00758333333,19.0344444 0.021125,19.1066667 C0.027625,19.1394444 0.0395416667,19.17 0.04875,19.2016667 C0.0595833333,19.2394444 0.06825,19.2772222 0.082875,19.3138889 C0.0980416667,19.3511111 0.118625,19.385 0.137583333,19.4205556 C0.15275,19.4488889 0.164666667,19.4783333 0.182541667,19.5055556 C0.261625,19.6272222 0.364,19.7322222 0.482625,19.8133333 C0.509166667,19.8316667 0.538416667,19.8444444 0.566583333,19.86 C0.600708333,19.8788889 0.633208333,19.9 0.6695,19.9155556 C0.70525,19.9305556 0.742625,19.9394444 0.779458333,19.9505556 C0.810333333,19.96 0.840125,19.9722222 0.872083333,19.9788889 C0.941416667,19.9922222 1.012375,20 1.08333333,20 L24.9166667,20 C24.987625,20 25.0585833,19.9922222 25.129,19.9783333 C25.1609583,19.9716667 25.19075,19.9594444 25.221625,19.95 C25.2584583,19.9388889 25.2958333,19.93 25.3315833,19.915 C25.3673333,19.8994444 25.400375,19.8788889 25.4345,19.8594444 C25.4626667,19.8438889 25.491375,19.8311111 25.5184583,19.8127778 C25.6370833,19.7311111 25.7394583,19.6266667 25.8185417,19.505 C25.8364167,19.4777778 25.8483333,19.4483333 25.8635,19.42 C25.8824583,19.385 25.9030417,19.3511111 25.9182083,19.3133333 C25.9328333,19.2766667 25.9415,19.2388889 25.9523333,19.2011111 C25.9615417,19.1694444 25.9734583,19.1388889 25.9799583,19.1061111 C25.9924167,19.0344444 26,18.9616667 26,18.8888889 L26,1.11111111 C26,1.09333333 25.9935,1.07722222 25.9924167,1.05944444 Z M22.3009583,2.22222222 L14.0876667,10.6466667 C13.4880417,11.2611111 12.5125,11.2611111 11.9123333,10.6466667 L3.69904167,2.22222222 L22.3009583,2.22222222 Z M2.16666667,3.79388889 L8.21816667,10 L2.16666667,16.2066667 L2.16666667,3.79388889 Z M3.6985,17.7777778 L9.75,11.5711111 L10.3805,12.2177778 C10.4709583,12.3105556 10.5646667,12.3972222 10.661625,12.4783333 C12.0179583,13.6127778 13.9820417,13.6127778 15.338375,12.4783333 C15.4353333,12.3972222 15.5290417,12.3105556 15.6195,12.2177778 L16.25,11.5711111 L22.3015,17.7777778 L3.6985,17.7777778 Z M23.8333333,16.2066667 L17.7818333,10 L23.8333333,3.79388889 L23.8333333,16.2066667 Z" id="Shape" fill="#000000" fill-rule="nonzero"></path>
    </g>
</svg>