<svg width="44" height="24" viewBox="0 0 44 24" fill="none" xmlns="http://www.w3.org/2000/svg">
<path fill-rule="evenodd" clip-rule="evenodd" d="M7.64282 6.78002L5.41514 17.3915L3.18764 6.78002C3.11983 6.53238 2.89791 6.34937 2.6315 6.34937H0L2.31796 17.3915H5.41514L4.08327 23.7363H7.18045L10.8305 6.34937H8.19895C7.93271 6.34937 7.71062 6.53238 7.64282 6.78002Z" fill="black"/>
<path fill-rule="evenodd" clip-rule="evenodd" d="M12.0186 11.79C12.0186 8.54199 14.5851 5.94434 17.8992 5.94434C21.3203 5.94434 23.6725 8.56393 23.6725 11.79V12.4388H15.1195C15.3327 13.8466 16.509 15.0375 17.8992 15.0375C19.8231 15.0375 20.3576 13.7381 20.3576 13.7381H23.5655C23.5655 13.7381 22.6026 17.635 17.8992 17.635C14.5851 17.635 12.0186 15.0375 12.0186 11.79ZM17.8969 8.64579C16.5066 8.64579 15.5449 9.62062 15.2234 10.703H20.4624C20.2489 9.62062 19.2863 8.64579 17.8969 8.64579Z" fill="black"/>
<path fill-rule="evenodd" clip-rule="evenodd" d="M31.7823 11.7902C31.7823 8.54216 34.3487 5.94434 37.7698 5.94434C41.1913 5.94434 43.7566 8.54216 43.7566 11.7902C43.7566 15.0375 41.1913 17.6351 37.7698 17.6351C34.3487 17.6351 31.7823 15.0375 31.7823 11.7902ZM34.9873 11.8938C34.9873 13.8418 36.2697 15.1411 37.8738 15.1411C39.4777 15.1411 40.7597 13.8418 40.7597 11.8938C40.7597 9.94495 39.4777 8.64579 37.8738 8.64579C36.2697 8.64579 34.9873 9.94495 34.9873 11.8938Z" fill="black"/>
<path fill-rule="evenodd" clip-rule="evenodd" d="M29.3547 0C29.0883 0 28.8664 0.183011 28.7986 0.430822L25.239 17.3869H28.3362L31.9862 0H29.3547Z" fill="black"/>
<path fill-rule="evenodd" clip-rule="evenodd" d="M29.3547 0C29.0883 0 28.8664 0.183011 28.7986 0.430822L25.239 17.3869H28.3362L31.9862 0H29.3547Z" fill="black"/>
</svg>
